<svg width="1080" height="201" xmlns="http://www.w3.org/2000/svg" xmlns:xlink="http://www.w3.org/1999/xlink" xml:space="preserve" overflow="hidden"><g transform="translate(-102 -382)"><path d="M0 94.77 0 65.988 171.018 65.988 174.312 63.558 200.772 78.408C190.998 104.382 182.682 133.218 162.972 153.09 139.212 177.552 105.246 188.622 74.142 198.018L62.316 185.382C113.832 160.758 140.292 132.192 141.156 94.77ZM23.49 50.112 23.49 22.248 166.104 22.248 166.104 50.112Z" fill-rule="evenodd" transform="matrix(1 0 0 1.00601 102 382.896)"/><path d="M338.958 16.2 366.822 16.2 366.822 38.178 338.958 38.178ZM383.13 16.2 410.13 16.2 410.13 37.8 383.4 37.8ZM213.732 101.412C250.992 81 267.03 46.17 275.94 10.8L320.49 22.842 311.472 40.608 373.572 40.608 377.298 36.612 408.078 51.408C383.85 117.468 337.59 165.798 269.298 196.398L254.772 184.248C312.552 155.898 341.172 113.292 350.352 68.742L291.222 68.742C277.128 86.94 258.012 101.142 236.088 117.882Z" fill-rule="evenodd" transform="matrix(1 0 0 1.00601 102 382.896)"/><path d="M607.23 14.04 629.532 14.04 629.532 36.612 607.23 36.612ZM636.552 14.418 659.772 14.418 659.772 36.612 636.552 36.612ZM426.6 74.898 426.6 51.678 470.88 51.678 470.88 12.258 509.49 12.258 509.49 51.192 559.494 51.192 559.494 10.098 598.752 10.098 598.752 51.408 643.41 51.408 643.41 78.678 600.21 78.678C600.21 101.736 603.18 129.006 585.63 149.796 578.988 157.734 531.63 187.596 521.37 190.026 504.63 194.184 504.252 190.026 506.79 181.548 524.772 169.236 544.59 152.658 554.688 134.244 564.3 116.964 562.248 98.064 562.14 79.056L510.03 79.056 510.03 126.198 471.528 126.198 471.528 80.298 426.6 80.298Z" fill="#C71108" fill-rule="evenodd" transform="matrix(1 0 0 1.00601 102 382.896)"/><path d="M649.512 116.37C722.412 83.7 760.86 37.8 799.2 0L844.668 28.08C823.797 47.15 800.68 63.598 775.818 77.058L775.818 186.192 735.372 186.192 735.372 97.74C713.005 109.688 689.861 120.115 666.09 128.952Z" fill-rule="evenodd" transform="matrix(1 0 0 1.00601 102 382.896)"/><path d="M861.408 45.09 861.408 17.118 1049.22 17.118 1052.3 14.634 1080 34.56C1060.42 64.5457 1035.96 91.0467 1007.64 112.968L993.87 97.2C1010.88 86.4 1019.68 73.602 1016.93 45.09ZM874.908 176.85C901.908 164.16 918.108 135.702 924.75 117.72 931.878 101.52 928.692 80.73 928.962 54.162L979.02 54.162C976.968 84.456 977.4 113.562 963.198 133.812 947.97 155.412 919.998 171.612 891.27 185.922Z" fill-rule="evenodd" transform="matrix(1 0 0 1.00601 102 382.896)"/></g></svg>